<?xml version="1.0" encoding="UTF-8"?>
<svg id="b" data-name="Calque 2" xmlns="http://www.w3.org/2000/svg" xmlns:xlink="http://www.w3.org/1999/xlink" viewBox="0 0 925.44 925.44">
  <defs>
    <style>
      .j {
        fill: url(#e);
      }

      .j, .k, .l, .m, .n, .o, .p, .q {
        stroke-width: 0px;
      }

      .k {
        fill: url(#g);
      }

      .l {
        fill: url(#i);
      }

      .m {
        fill: url(#h);
      }

      .n {
        fill: #fff;
      }

      .o {
        fill: #021db7;
      }

      .p {
        fill: url(#d);
      }

      .q {
        fill: url(#f);
      }
    </style>
    <radialGradient id="d" data-name="Dégradé sans nom 7" cx="474.27" cy="422.42" fx="474.27" fy="422.42" r="529.26" gradientUnits="userSpaceOnUse">
      <stop offset="0" stop-color="#0b9cff"/>
      <stop offset="1" stop-color="#4500b6"/>
    </radialGradient>
    <radialGradient id="e" data-name="Dégradé sans nom 7" cx="474.27" cy="422.42" fx="474.27" fy="422.42" r="529.26" xlink:href="#d"/>
    <radialGradient id="f" data-name="Dégradé sans nom 212" cx="474.27" cy="446.23" fx="474.27" fy="446.23" r="255.14" gradientUnits="userSpaceOnUse">
      <stop offset="0" stop-color="#57ff9e"/>
      <stop offset="1" stop-color="#0cc45a"/>
    </radialGradient>
    <radialGradient id="g" data-name="Dégradé sans nom 105" cx="473.14" cy="465.51" fx="473.14" fy="465.51" r="290.3" gradientUnits="userSpaceOnUse">
      <stop offset="0" stop-color="#57ff9e"/>
      <stop offset="1" stop-color="#0dd964"/>
    </radialGradient>
    <radialGradient id="h" data-name="Dégradé sans nom 7" cx="474.27" cy="422.42" fx="474.27" fy="422.42" r="529.26" xlink:href="#d"/>
    <radialGradient id="i" data-name="Dégradé sans nom 212" cx="474.27" cy="446.23" fx="474.27" fy="446.23" r="255.14" xlink:href="#f"/>
  </defs>
  <g id="c" data-name="Calque 1">
    <g>
      <circle class="n" cx="462.72" cy="462.72" r="462.72"/>
      <path class="o" d="m619.12,447.05c-2.83.23-5.58-.05-8.18-.77-9.2-2.53-16.29-10.56-17.2-20.6-.01-.08-.02-.15-.03-.23-1.04-12.99,8.63-24.37,21.61-25.42,12.99-1.04,24.36,8.64,25.41,21.62,1.05,12.98-8.63,24.35-21.61,25.4Z"/>
      <g>
        <path class="o" d="m240.93,241.81c-.33.28-.63.26-.92-.07l-58.05-67.87c-.22-.26-.21-.51.05-.73l18.92-16.28c6.04-5.2,12.41-7.47,19.09-6.82,6.68.66,12.73,4.14,18.16,10.44,4.01,4.67,6.57,9.5,7.67,14.5,1.1,5,.96,9.69-.41,14.07-1.37,4.38-3.8,8.07-7.28,11.07l-7.49,6.44,21.37,24.83c.28.33.26.63-.07.92l-11.04,9.5Zm-20.52-47.17l7.49-6.44c2.1-1.81,3.06-4.38,2.88-7.71-.18-3.33-1.65-6.61-4.42-9.83-2.21-2.56-4.7-4.07-7.5-4.53-2.79-.45-5.41.36-7.84,2.45l-7.41,6.54,16.79,19.51Z"/>
        <path class="o" d="m304.26,193.09c-.31.16-.56.04-.76-.35l-40.09-79.66c-.2-.39-.1-.68.29-.87l12.88-6.51c.39-.2.68-.1.87.29l33.18,65.97,23.9-12.08c.39-.19.68-.1.87.29l6.62,13.11c.2.39.1.68-.29.87l-37.48,18.93Z"/>
        <path class="o" d="m365.44,164.2l-4.63-90.63c0-.36.18-.58.51-.66l18.35-4.29c.34-.08.59.04.75.36l35.39,83.45c.18.4.06.65-.36.75l-14.05,3.28c-.34.08-.6-.08-.78-.49l-3.55-8.92-17.22,4.02.77,9.57c.01.44-.15.7-.48.78l-14.05,3.28c-.34.08-.55-.09-.65-.51Zm13.79-27.25l12.15-2.84-13.5-34.36-1.85-4.5.59,4.8,2.62,36.9Z"/>
        <path class="o" d="m445.82,150.09c-.69-.02-1.03-.33-1.02-.93l1.93-88.51c.02-.69.37-1.03,1.06-1.01l11.7.27,20.77,51.72.52-50.18c.02-.69.41-1.03,1.19-1.01l12.87.3c.52.01.77.36.76,1.06l-1.93,88.64c-.01.52-.24.77-.67.76l-11.44-.27-21.37-48.35-.18,46.81c-.02.69-.41,1.03-1.19,1.01l-13-.3Z"/>
        <path class="o" d="m525.78,156.3c-.33-.09-.44-.35-.33-.77l24.03-86.02c.09-.33.3-.46.64-.36l40.21,11.17c.33.09.44.35.33.77l-3.9,14.03c-.09.33-.31.45-.64.36l-25.68-7.13-5.43,19.54,25.68,7.13c.33.09.45.31.36.64l-3.81,14.19c-.09.33-.31.45-.64.36l-25.8-7.17-6.09,21.92,25.8,7.17c.33.09.44.35.33.77l-3.97,14.28c-.09.34-.31.46-.64.36l-40.46-11.24Zm40.14-89.64c-.33-.09-.54-.33-.61-.71l-5.63-24.9c-.08-.38.14-.5.64-.36l14.28,3.97c.33.09.49.32.49.67l4,24.45c-.01.36-.22.48-.64.36l-12.53-3.48Z"/>
        <path class="o" d="m608.11,186.35c-.3-.17-.35-.44-.14-.82l36.11-64.7-14.76-8.24c-.38-.21-.46-.5-.25-.88l7.21-12.65c.17-.3.4-.37.71-.2l43.14,24.08c.38.21.48.47.31.77l-7.1,12.71c-.21.38-.47.48-.77.31l-14.87-8.3-36,64.77c-.21.38-.47.48-.77.31l-12.83-7.16Z"/>
        <path class="o" d="m658.84,218.9c-.25-.24-.23-.51.06-.83l60.8-65.42c.23-.25.48-.27.74-.03l30.61,28.36c.25.24.23.51-.06.83l-9.9,10.68c-.24.25-.48.26-.73.03l-19.55-18.12-13.79,14.88,19.55,18.11c.25.23.26.48.03.73l-9.89,10.86c-.24.25-.48.26-.73.03l-19.64-18.2-15.46,16.69,19.64,18.2c.25.24.23.51-.06.83l-10.07,10.87c-.24.25-.48.26-.74.03l-30.8-28.54Z"/>
      </g>
      <g>
        <path class="o" d="m245.19,803.12c-.38-.21-.46-.5-.25-.88l43.67-77.9c.17-.3.4-.37.71-.2l21.3,11.71c4.21,2.24,7.46,5.35,9.77,9.31,2.31,3.96,3.52,8.24,3.65,12.82.12,4.58-.97,8.96-3.29,13.12l-18.15,32.6c-2.45,4.39-5.73,7.8-9.85,10.21-4.12,2.42-8.55,3.69-13.29,3.83-4.74.14-9.37-1-13.87-3.41l-20.39-11.21Zm21.07-6.57l7.04,3.92c2.8,1.56,5.72,1.89,8.74,1,3.03-.89,5.3-2.7,6.82-5.43l18.21-32.71c1.35-2.42,1.63-5.02.84-7.79-.79-2.77-2.42-4.79-4.88-6.07l-8.01-4.31-28.76,51.39Z"/>
        <path class="o" d="m334.47,845.13c-.42-.13-.56-.4-.43-.81l26.86-85.18c.1-.33.32-.44.65-.34l13.89,4.36c.33.1.44.32.34.65l-26.61,85.25c-.13.41-.36.57-.69.46l-14.02-4.4Z"/>
        <path class="o" d="m418.03,864.74c-4.65-.5-8.77-2.14-12.35-4.92-3.58-2.78-6.3-6.25-8.17-10.42-1.86-4.17-2.54-8.62-2.03-13.36l.64-5.95c.05-.43.28-.62.72-.58l14.48,1.55c.34.04.49.27.45.7l-.64,5.95c-.3,2.84.38,5.38,2.06,7.61,1.68,2.23,3.85,3.49,6.53,3.77,2.67.29,5.06-.5,7.18-2.37,2.12-1.87,3.32-4.17,3.62-6.93.34-3.19-1.43-6.17-5.32-8.94-1.3-.92-3.32-2.36-6.07-4.31-2.75-1.95-5.35-3.8-7.77-5.54-4.44-3.27-7.58-7.11-9.42-11.54-1.84-4.42-2.47-9.26-1.91-14.52.52-4.83,2.15-9.03,4.88-12.62,2.74-3.58,6.14-6.29,10.22-8.12,4.07-1.83,8.35-2.5,12.83-2.02,4.57.49,8.64,2.08,12.23,4.78,3.59,2.7,6.32,6.08,8.19,10.16,1.87,4.08,2.55,8.49,2.04,13.23l-1.14,10.6c-.04.35-.23.5-.57.46l-14.48-1.55c-.35-.04-.5-.23-.46-.57l1.01-10.61c.32-3.02-.36-5.57-2.05-7.67-1.69-2.1-3.83-3.29-6.42-3.57-2.67-.29-5.06.48-7.18,2.3-2.11,1.82-3.32,4.11-3.61,6.87-.3,2.84.04,5.28,1.05,7.3,1,2.03,3,4.07,6.01,6.14.4.3,1.19.85,2.37,1.63,1.18.78,2.46,1.66,3.84,2.63,1.38.98,2.61,1.83,3.71,2.56,1.1.73,1.77,1.19,2.01,1.39,4.05,2.88,7.13,6.19,9.26,9.95,2.12,3.76,2.91,8.18,2.37,13.26-.53,4.91-2.14,9.21-4.85,12.88-2.71,3.68-6.1,6.45-10.18,8.32-4.08,1.87-8.45,2.56-13.1,2.06Z"/>
        <path class="o" d="m516.04,863.69c-4.73.63-9.16.01-13.29-1.84-4.14-1.85-7.58-4.61-10.34-8.27-2.76-3.66-4.46-7.93-5.11-12.83l-5.2-40.23c-.63-4.72-.1-9.19,1.57-13.39,1.67-4.2,4.26-7.73,7.77-10.6,3.51-2.87,7.63-4.62,12.35-5.24,4.72-.63,9.13-.03,13.22,1.79,4.09,1.82,7.51,4.54,10.26,8.15,2.75,3.61,4.45,7.83,5.08,12.64l.79,5.93c.05.34-.1.54-.45.58l-14.43,1.91c-.34.05-.54-.1-.58-.45l-.79-5.93c-.38-2.83-1.62-5.16-3.74-6.98-2.12-1.82-4.56-2.54-7.3-2.18-3.09.41-5.32,1.78-6.67,4.1-1.35,2.32-1.85,4.86-1.48,7.61l5.33,40.21c.42,3.18,1.69,5.63,3.8,7.37,2.11,1.73,4.49,2.42,7.16,2.07,2.75-.36,4.9-1.76,6.46-4.2,1.56-2.44,2.15-5.03,1.79-7.78l-.79-5.93c-.05-.34.1-.54.45-.58l14.56-1.93c.34-.04.54.1.58.45l.79,5.93c.65,4.9.1,9.47-1.66,13.73-1.75,4.25-4.36,7.81-7.83,10.68-3.47,2.86-7.56,4.61-12.29,5.23Z"/>
        <path class="o" d="m612.63,838.49c-4.26,1.71-8.65,2.19-13.15,1.43s-8.57-2.56-12.19-5.4c-3.62-2.84-6.31-6.48-8.09-10.9l-23.98-60.42c-.13-.32-.03-.55.29-.68l13.51-5.43c.32-.13.55-.03.68.29l24.22,60.32c1.1,2.74,2.89,4.7,5.38,5.9,2.49,1.2,4.98,1.29,7.47.29,2.57-1.03,4.34-2.84,5.32-5.43.97-2.58.91-5.24-.19-7.98l-24.22-60.32c-.13-.32-.03-.55.29-.68l13.51-5.43c.32-.13.55-.03.68.29l24.46,60.22c1.81,4.51,2.39,9.04,1.74,13.59-.65,4.56-2.32,8.64-5.03,12.25-2.71,3.61-6.27,6.3-10.7,8.08Z"/>
        <path class="o" d="m698.33,791.5c-3.79,2.74-7.96,4.27-12.48,4.59-4.52.33-8.87-.44-13.04-2.29-4.17-1.85-7.65-4.71-10.44-8.58l-3.5-4.85c-.25-.35-.21-.65.15-.91l11.81-8.52c.28-.2.55-.13.8.22l3.5,4.85c1.67,2.32,3.88,3.75,6.62,4.28,2.74.54,5.2.02,7.38-1.55,2.18-1.57,3.43-3.76,3.76-6.56.33-2.8-.32-5.33-1.94-7.58-1.88-2.6-5.19-3.63-9.93-3.09-1.58.18-4.05.46-7.4.85-3.35.39-6.51.75-9.49,1.07-5.49.54-10.39-.22-14.72-2.29-4.32-2.06-8.03-5.24-11.12-9.53-2.84-3.93-4.44-8.15-4.8-12.65-.36-4.5.37-8.79,2.17-12.87,1.81-4.08,4.54-7.45,8.19-10.08,3.72-2.69,7.82-4.23,12.29-4.62,4.47-.39,8.77.3,12.89,2.08,4.12,1.78,7.58,4.61,10.36,8.47l6.24,8.64c.2.28.16.52-.12.73l-11.81,8.52c-.28.2-.52.16-.73-.12l-6.34-8.57c-1.78-2.46-4-3.9-6.66-4.33-2.66-.43-5.05.12-7.16,1.64-2.18,1.57-3.44,3.74-3.8,6.51-.35,2.77.28,5.28,1.9,7.52,1.67,2.32,3.56,3.9,5.66,4.73,2.1.84,4.96,1.02,8.57.55.5-.04,1.45-.17,2.85-.38,1.4-.21,2.94-.41,4.61-.6,1.68-.19,3.17-.39,4.47-.58,1.3-.19,2.11-.29,2.42-.31,4.93-.57,9.45-.17,13.54,1.21,4.09,1.38,7.63,4.14,10.63,8.28,2.89,4,4.56,8.28,5.01,12.82.45,4.54-.22,8.87-2.01,12.99-1.78,4.12-4.57,7.55-8.37,10.29Z"/>
      </g>
      <g>
        <g>
          <path class="p" d="m293.87,572.77c-15.7,12.29-31.9,21.71-48.32,20.49-30.57-2.28-58.68-120.76-38.76-125.28,19.16-4.37,14.04-13.93,108.23-3.71-.09.38-.18.75-.28,1.13-1.53,5.96-4.78,11.15-6.5,17.03-2.71,9.11-1.65,18.99-1.34,28.53.49,21.25-4.13,42.52-13.03,61.81Z"/>
          <path class="j" d="m315.54,461.74c-21.03-8.18-65.07-30.16-72.1-72.76-2.8-16.99,7.19-43.89,25.56-71.11,4.36,15.92,13.65,31.11,12.92,47.48-.15,5.44-1.7,10.94-.92,16.34,2.13,15.18,19.61,23.26,26.82,36.81,2.35,4.5,3.49,9.6,4.73,14.51,2.29,9.37,4.54,19.24,2.99,28.75Z"/>
        </g>
        <g>
          <path class="q" d="m447.94,329.11c-2.35-4.49-9.6-1.09-11.85,3.4-2.33,4.69-3.58,10.54-8.28,12.33-2.49.95-5.23.4-7.97-.13-12.08-2.22-24.76-1.03-36,3.56-10.59,4.19-19.94,11.22-29.02,18.16-1.73,1.29-3.54,2.78-5.27,4.06-2.16,1.77-4.45,3.27-6.62,5.05-7.35-3.54-15.18-7.05-23.32-6.81-8.14.25-16.7,6.04-17.38,14.22-.63,9.58,8.62,16.03,15.1,23.07,6.28,6.94,8.74,20.89-.33,23.7,7.84,3.98,7.77,17.93,16.54,19.35,2.54.46,5.03-.49,7.54-.97,9.48-1.71,19.22,2.66,26.14,9.21,6.92,6.55,11.58,15.06,16.34,23.38,1.83,3.58,3.75,6.96,4.76,10.85.9,3.61,1.06,7.35,2.04,10.78,1.88,7.04,7.26,12.44,11.62,18.06,4.36,5.62,8.3,12.67,6.73,19.75-1.58,7.1-11.11,11.98-16.28,7.14-3.39,13.16-9.93,29.26-23.49,29.82-3.74.16-7.43-.81-11.05.09-8.88,2.42-10.06,14.74-16.62,21.2-6.04,5.78-17.02,5.21-22.26-1.5-1.53,5.96-7.75,9.59-13.24,12.63-3.22,1.87-6.37,3.85-9.45,5.91-4.89-7.32-6.29-13.73-3.48-20.14,5.24-11.95,17.51-33.16,28.42-45.79-8.91,7.68-18.06,15.98-27.39,23.26,8.9-19.28,13.52-40.55,13.03-61.81-.31-9.54-1.37-19.42,1.34-28.53,1.72-5.88,4.97-11.07,6.5-17.03.1-.38.2-.75.28-1.13,3.73.4,7.62.84,11.67,1.31,0,0-4.38-1.2-11.16-3.84,1.54-9.51-.7-19.38-2.99-28.75-1.24-4.9-2.38-10.01-4.73-14.51-7.21-13.55-24.69-21.63-26.82-36.81-.78-5.4.76-10.89.92-16.34.74-16.37-8.56-31.56-12.92-47.48,28.65-42.45,77.68-85.68,130.36-93.32.76-.1,1.52-.2,2.28-.3-4.56-2.11-10.22-4.29-17.32-6.47,0,0,22.43-6.42,43.66-.79-4.37-3.07-10.15-6.51-17.85-10.22,0,0,14.3-1.84,29.99,1.74-1.97,4.38-1.25,10.33,1.17,14.88,3.36,6.33,8.99,11.15,12.42,17.28,3.45,6.13,4.09,14.91-1.54,19.27-2.73,1.98-6.45,2.61-8.99,4.68-4.34,3.55-4.73,10.03-4.49,15.64.24,10.2.69,20.95,6.09,29.33,2.2,3.28,4.85,6.08,6.21,9.67,1.36,3.6.44,8.23-3.05,9.87Z"/>
          <path class="k" d="m543.94,282.31c-2.14,4.77-4.47,9.46-6.61,14.23-10.11-6.6-24.47-5.25-33.21,2.98-1.54,1.38-3.06,3.22-5.18,3.86-4.89,1.7-9.5-3.34-11.39-8.32-7.07-19,2.42-40.66-2.6-60.11-4.61-17.33-21.59-30.4-39.3-30.7-2.15-1.35-4.5-2.75-7.08-4.19,0,0,31.8-2.15,51.64,14.79-2.56-3.36-5.72-7.1-9.65-11.27,0,0,21.47,5.22,36.64,19.75-1.83-3.39-4.08-7.15-6.85-11.35,0,0,16.68,7.24,29.09,21.2-1.58-3.99-3.65-8.52-6.36-13.72.41.23,13.7,7.81,24.22,20.71,0,.01.03.01.04.03-1.12-3.78-2.58-8.02-4.5-12.82,0,0,10.94,7.7,19.94,20.1.08.04.17.09.25.14.89,3.35,1.21,6.85.82,10.49-1.56,14.21-15.69,25.75-29.9,24.19Z"/>
        </g>
        <path class="m" d="m680.65,548.95c-3.82,9.51-16.72,10.15-26.95,9.45-10.16-.89-23.14-.06-26.95,9.46,4.79,2.61,9.47,4.94,14.16,7.27.17,10.85-10.18,18.59-20.11,22.85-10.13,4.16-21.33,7.17-27.91,15.68-4.8,6.1-6.07,14.02-8.66,21.34-2.52,7.13-7.35,14.82-14.87,16.27-2.51.48-5.7.42-7.11,2.54-3.1,4.34,4.1,12.85-.97,14.93-5.33,2.19-11.82,1.8-16.82-1.36-1.7,10.93-12.39,19.43-23.46,19.05-11.07-.38-21.02-9.9-22.04-20.91-1.04-11.47,6.76-22.2,6.65-33.71.14-5.44-1.57-10.8.08-16.02,2.9-9.01,14.54-12.97,16.97-21.97,2.35-8.81-5.35-18.22-2.53-27.05,1.82-5.6,7.81-10.26,6.54-16.1-.75-4.47-5.44-6.8-9.45-8.6-11.81-4.84-24.48-9.84-31.39-20.52-6.5-10.02-6.03-23.34-.96-34.14,4.89-10.88,13.72-19.3,23.16-26.52,16.7-12.69,38.98-21.95,58.07-13.38,5.72,2.57,11.06,7.03,12.44,13.15.48,2.51.4,5.23.88,7.74,1.21,6.5,7.52,11.86,14.17,11.86,2.5-5.07,9.9-5.19,14.52-2.19,4.62,2.99,7.36,8.12,10.91,12.46,3.37,4.26,8.76,8.06,14.06,7,7.53-1.44,9.99-12.02,6.06-18.6-3.93-6.58-11.73-9.63-19.11-11.57-3.12-.71-6.73-1.87-7.61-5.02-.96-2.96,1.18-5.67,1.61-8.68.32-2.94-1.04-5.28-3.08-7.39-9.2-2.53-16.3-10.56-17.2-20.6-.25-.26-.49-.5-.76-.73-4.47-3.84-11.55-2.9-16.77.04-5.13,2.74-9.43,7.23-14.75,9.89-8.07,4.18-18.95,3.88-25.41-2.69-6.26-6.48-5.02-19.46,3.45-22.99,9.86-4.06,24,5.28,30.97-3.07,3.92-4.66,2.4-11.99,6.14-16.74,5.96-7.65,17.8-1.86,27.01,1.12,9.78,3.24,20.98,2.31,30.24-2.49,4.69-2.25,9.04-5.81,14.26-6.21,5.42-.31,10.41,2.38,15.54,4.23,5.13,1.85,11.61,2.23,15.2-1.67,5.25-5.61,1.02-14.9,3.54-21.81-25.62-41.3-59.44-75.76-80.16-94.7-8.22-7.51-18.05-14.3-29.2-20.25.89,3.35,1.21,6.85.82,10.49-1.56,14.21-15.69,25.75-29.9,24.19-2.14,4.77-4.47,9.46-6.61,14.23-10.11-6.6-24.47-5.25-33.21,2.98-1.54,1.38-3.06,3.22-5.18,3.86-4.89,1.7-9.5-3.34-11.4-8.32-7.07-19,2.42-40.66-2.6-60.11-4.61-17.33-21.59-30.4-39.3-30.7,10.37,6.49,15.96,11.83,18.97,15.76-7.24-6.15-16.07-9.62-24.49-11.52-1.97,4.38-1.25,10.33,1.17,14.88,3.36,6.33,8.99,11.15,12.42,17.28,3.45,6.13,4.09,14.91-1.54,19.27-2.73,1.98-6.45,2.61-8.99,4.68-4.34,3.55-4.73,10.03-4.49,15.64.24,10.2.69,20.95,6.09,29.33,2.2,3.28,4.85,6.08,6.21,9.67,1.36,3.6.44,8.23-3.05,9.87-2.35-4.49-9.6-1.09-11.85,3.4-2.33,4.69-3.58,10.54-8.28,12.33-2.49.95-5.23.4-7.97-.13-12.08-2.22-24.76-1.03-36,3.56-10.59,4.19-19.94,11.22-29.02,18.16-1.73,1.29-3.54,2.78-5.27,4.06-2.16,1.77-4.45,3.27-6.62,5.05-7.35-3.54-15.18-7.05-23.32-6.81-8.14.25-16.7,6.04-17.38,14.22-.63,9.58,8.62,16.03,15.1,23.07,6.28,6.94,8.74,20.89-.33,23.7,7.84,3.98,7.77,17.93,16.54,19.35,2.54.46,5.03-.49,7.54-.97,9.48-1.71,19.22,2.66,26.14,9.21,6.92,6.55,11.58,15.07,16.34,23.38,1.83,3.58,3.75,6.96,4.76,10.85.9,3.61,1.06,7.35,2.04,10.78,1.88,7.04,7.26,12.44,11.62,18.06,4.36,5.62,8.3,12.66,6.73,19.75-1.58,7.1-11.11,11.98-16.28,7.14-3.39,13.16-9.93,29.26-23.49,29.82-3.74.16-7.43-.81-11.04.09-8.88,2.42-10.06,14.74-16.62,21.2-6.04,5.78-17.02,5.21-22.26-1.5-1.53,5.96-7.75,9.59-13.24,12.63-3.22,1.87-6.37,3.85-9.45,5.91,7.92,11.85,24.98,26.08,48.11,46.42,37.43,32.92,120.07,40.42,169.98,26.8l.03-.02c1.83-.5,3.46,1.28,2.78,3.06-2.28,5.98-8.69,16.15-26.27,30.7-1.42,1.18-.25,3.48,1.53,2.98,12.43-3.46,38.25-13.35,59.49-39.03.07-.09.15-.17.21-.25,11.07-13.4,23.87-25.27,38.11-35.25,19.33-13.56,36.36-28.25,49.72-40.75,13.24-12.41,32.77-33.46,48.8-59.65-2.51-1.32-5.29-1.92-8.16-1.5Z"/>
        <path class="l" d="m725.3,463.43c-.28-3.64-2.69-6.59-5.91-7.73,3.02-1.61,4.96-4.9,4.7-8.52-.37-4.91-4.64-8.58-9.54-8.22-.04,0-.07,0-.11.01-5.27-26.63-17.3-52.65-32.04-76.41-2.52,6.91,1.71,16.2-3.54,21.81-3.59,3.9-10.07,3.52-15.2,1.67-5.13-1.85-10.12-4.54-15.54-4.23-5.22.4-9.57,3.96-14.26,6.21-9.25,4.8-20.46,5.73-30.24,2.49-9.21-2.99-21.06-8.78-27.01-1.12-3.74,4.75-2.22,12.08-6.14,16.74-6.96,8.35-21.11-.99-30.97,3.07-8.47,3.54-9.71,16.51-3.45,22.99,6.45,6.57,17.33,6.87,25.41,2.69,5.32-2.66,9.62-7.15,14.75-9.89,5.22-2.94,12.3-3.89,16.77-.04.27.23.52.47.76.73,0-.08-.02-.15-.03-.24-1.05-12.99,8.62-24.36,21.6-25.41,12.99-1.05,24.36,8.63,25.41,21.61,1.05,12.98-8.63,24.35-21.61,25.4-2.83.23-5.58-.05-8.17-.77,2.04,2.11,3.4,4.45,3.08,7.39-.43,3.01-2.57,5.72-1.61,8.68.88,3.15,4.49,4.31,7.61,5.02,7.38,1.94,15.19,4.98,19.11,11.57,3.93,6.57,1.47,17.16-6.06,18.6-5.3,1.07-10.69-2.73-14.06-7-3.55-4.35-6.29-9.48-10.91-12.46-4.62-3-12.01-2.87-14.52,2.19-6.65,0-12.96-5.36-14.17-11.86-.48-2.51-.4-5.23-.88-7.74-1.38-6.12-6.72-10.58-12.44-13.15-19.09-8.57-41.37.69-58.07,13.38-9.44,7.22-18.26,15.65-23.16,26.52-5.07,10.8-5.55,24.12.96,34.14,6.91,10.68,19.57,15.68,31.39,20.52,4.01,1.8,8.69,4.12,9.45,8.6,1.27,5.84-4.72,10.5-6.54,16.1-2.82,8.83,4.88,18.25,2.53,27.05-2.43,9-14.07,12.96-16.97,21.97-1.66,5.22.06,10.59-.08,16.02.11,11.51-7.69,22.23-6.65,33.71,1.02,11.01,10.97,20.52,22.04,20.91,11.07.37,21.76-8.12,23.46-19.05,5,3.16,11.48,3.54,16.82,1.36,5.07-2.08-2.13-10.59.97-14.93,1.42-2.12,4.6-2.06,7.11-2.54,7.52-1.45,12.35-9.14,14.87-16.27,2.59-7.32,3.86-15.24,8.66-21.34,6.57-8.51,17.77-11.52,27.91-15.68,9.93-4.25,20.29-11.99,20.11-22.85-4.69-2.33-9.37-4.67-14.16-7.27,3.82-9.52,16.8-10.35,26.95-9.46,10.23.7,23.14.06,26.95-9.45,2.87-.42,5.65.18,8.16,1.5,13.92-22.72,25.22-49.31,27.52-77.46.25,0,.5,0,.75-.02,4.9-.37,8.58-4.64,8.22-9.54Z"/>
      </g>
    </g>
  </g>
</svg>