<svg width="16" height="16" viewBox="0 0 16 16" fill="none" xmlns="http://www.w3.org/2000/svg">
<g id="Menu">
<path id="Vector" d="M1.99998 5.99999H14C14.1768 5.99999 14.3464 5.92975 14.4714 5.80473C14.5964 5.6797 14.6666 5.51013 14.6666 5.33332C14.6666 5.15651 14.5964 4.98694 14.4714 4.86192C14.3464 4.73689 14.1768 4.66666 14 4.66666H1.99998C1.82317 4.66666 1.6536 4.73689 1.52858 4.86192C1.40355 4.98694 1.33331 5.15651 1.33331 5.33332C1.33331 5.51013 1.40355 5.6797 1.52858 5.80473C1.6536 5.92975 1.82317 5.99999 1.99998 5.99999ZM14 7.33332H1.99998C1.82317 7.33332 1.6536 7.40356 1.52858 7.52859C1.40355 7.65361 1.33331 7.82318 1.33331 7.99999C1.33331 8.1768 1.40355 8.34637 1.52858 8.47139C1.6536 8.59642 1.82317 8.66666 1.99998 8.66666H14C14.1768 8.66666 14.3464 8.59642 14.4714 8.47139C14.5964 8.34637 14.6666 8.1768 14.6666 7.99999C14.6666 7.82318 14.5964 7.65361 14.4714 7.52859C14.3464 7.40356 14.1768 7.33332 14 7.33332ZM14 9.99999H1.99998C1.82317 9.99999 1.6536 10.0702 1.52858 10.1953C1.40355 10.3203 1.33331 10.4898 1.33331 10.6667C1.33331 10.8435 1.40355 11.013 1.52858 11.1381C1.6536 11.2631 1.82317 11.3333 1.99998 11.3333H14C14.1768 11.3333 14.3464 11.2631 14.4714 11.1381C14.5964 11.013 14.6666 10.8435 14.6666 10.6667C14.6666 10.4898 14.5964 10.3203 14.4714 10.1953C14.3464 10.0702 14.1768 9.99999 14 9.99999Z" fill="#fff"/>
</g>
</svg>
