<svg width="40" height="40" viewBox="0 0 40 40" fill="none" xmlns="http://www.w3.org/2000/svg">
<g id="Logo">
<g id="Group">
<path id="Vector" d="M18.2826 12.4325C23.7569 14.3646 29.6607 14.2573 35.0814 12.1641C35.135 9.96364 34.5447 7.76316 33.5249 5.77735L32.9882 4.70395C32.8272 4.75762 32.6125 4.86497 32.5052 4.97231C27.5675 7.3338 21.9858 7.65582 16.7798 5.77736C13.1302 4.48927 9.15859 4.81129 5.72369 6.52874L4.65028 7.06545C4.70395 7.22646 4.81131 7.44113 4.91865 7.54847C5.56269 8.9439 6.09939 10.4467 6.47508 12.0031C10.232 10.9297 14.4183 11.037 18.2826 12.4325Z" fill="white"/>
<path id="Vector_2" d="M4.91884 28.5872L6.09958 27.9432C8.49205 26.747 11.1314 26.1679 13.7502 26.2443C15.3611 26.2912 16.9643 26.5862 18.4974 27.1381C18.9968 27.3153 19.4979 27.478 20.0002 27.6263V33.3471C17.9222 32.9608 15.8186 32.9056 13.7502 33.1719C11.6045 33.4481 9.49685 34.0703 7.49501 35.0277C7.38767 35.135 7.17298 35.2424 7.01197 35.296L6.47527 34.2226C5.56287 32.4515 5.02618 30.5194 4.91884 28.5872Z" fill="white"/>
<path id="Vector_3" d="M5.56234 23.6496C10.1243 21.7711 15.223 21.6101 19.8923 23.2739C24.186 24.7766 28.7479 25.045 33.0416 24.0789C32.9879 21.6638 33.3099 19.3023 34.1686 16.9408C28.5333 18.6045 22.4685 18.4435 16.8331 16.4577C13.6129 15.277 10.0706 15.277 6.85043 16.3504C6.9041 18.6582 6.47475 21.0197 5.6697 23.3275C5.6697 23.3275 5.61601 23.4886 5.56234 23.6496Z" fill="white"/>
</g>
</g>
</svg>
